<svg xmlns="http://www.w3.org/2000/svg" width="100.668" height="100.668" viewBox="0 0 100.668 100.668">
  <g id="Icon_core-smile" data-name="Icon core-smile" transform="translate(-1.125 -1.125)">
    <path id="Tracciato_973" data-name="Tracciato 973" d="M51.459,1.125a50.334,50.334,0,1,0,50.334,50.334A50.334,50.334,0,0,0,51.459,1.125Zm30.846,81.18a43.466,43.466,0,1,1,9.351-13.868,43.466,43.466,0,0,1-9.351,13.868Z" fill="#000"/>
    <path id="Tracciato_974" data-name="Tracciato 974" d="M12.644,14.062h8.389v8.389H12.644Zm35.234,0h8.389v8.389H47.878Zm3.836,22.483A17.533,17.533,0,0,1,35.357,47.619h-1.8A17.533,17.533,0,0,1,17.2,36.545l-.268-.671H9.7l1.265,3.163A24.328,24.328,0,0,0,33.553,54.33h1.8A24.328,24.328,0,0,0,57.944,39.037l1.265-3.164H51.982Z" transform="translate(17.004 25.652)" fill="#000"/>
  </g>
</svg>
