<svg version="1.1" id="Layer_1" xmlns="http://www.w3.org/2000/svg" xmlns:xlink="http://www.w3.org/1999/xlink" x="0px" y="0px"
	 width="100%" viewBox="0 0 211 207" enable-background="new 0 0 211 207" xml:space="preserve">
<path fill="#595B7A" opacity="1.000000" stroke="none" 
	d="
M110.000000,208.000000 
	C73.700577,208.000000 37.401154,208.000000 1.101729,208.000000 
	C1.067820,207.867401 1.004195,207.734787 1.004187,207.602188 
	C0.999944,138.833099 1.000000,70.064011 1.000000,1.000000 
	C51.687180,1.000000 102.374931,1.000000 153.453552,1.362108 
	C152.551163,5.181962 151.257889,8.639709 149.601181,12.052881 
	C130.482956,3.264611 110.854271,0.116525 90.365974,3.193512 
	C50.551743,9.172921 17.474218,39.235577 7.965917,77.891609 
	C-1.941768,118.171326 12.836246,159.555878 45.825615,183.803909 
	C64.920906,197.839432 86.459023,203.943665 110.017181,203.797546 
	C110.013710,205.452896 110.006859,206.726456 110.000000,208.000000 
z"/>
<path fill="#515370" opacity="1.000000" stroke="none" 
	d="
M110.468658,208.000000 
	C110.006859,206.726456 110.013710,205.452896 110.455231,203.689529 
	C114.032280,202.875732 117.191666,202.667862 120.314575,202.210785 
	C192.350449,191.666885 229.589233,109.703194 190.241333,48.455406 
	C180.088959,32.652508 166.293945,20.999672 149.964630,12.097454 
	C151.257889,8.639709 152.551163,5.181962 153.922211,1.362108 
	C173.281937,1.000000 192.563873,1.000000 212.000000,1.000000 
	C212.000000,36.354088 212.000000,71.708389 211.681030,107.689316 
	C210.768738,109.464355 209.897400,110.550179 209.622696,111.770332 
	C202.487885,143.460617 197.502151,175.437729 197.000000,208.000000 
	C168.312439,208.000000 139.624878,208.000000 110.468658,208.000000 
z"/>
<path fill="#585A79" opacity="1.000000" stroke="none" 
	d="
M197.472656,208.000000 
	C197.502151,175.437729 202.487885,143.460617 209.622696,111.770332 
	C209.897400,110.550179 210.768738,109.464355 211.681030,108.157974 
	C212.000000,141.333374 212.000000,174.666748 212.000000,208.000000 
	C207.242355,208.000000 202.593826,208.000000 197.472656,208.000000 
z"/>
<path fill="#FCFCFD" opacity="1.000000" stroke="none" 
	d="
M149.601181,12.052881 
	C166.293945,20.999672 180.088959,32.652508 190.241333,48.455406 
	C229.589233,109.703194 192.350449,191.666885 120.314575,202.210785 
	C117.191666,202.667862 114.032280,202.875732 110.451843,203.307739 
	C86.459023,203.943665 64.920906,197.839432 45.825615,183.803909 
	C12.836246,159.555878 -1.941768,118.171326 7.965917,77.891609 
	C17.474218,39.235577 50.551743,9.172921 90.365974,3.193512 
	C110.854271,0.116525 130.482956,3.264611 149.601181,12.052881 
M112.015129,189.573822 
	C164.931763,185.743439 201.531830,136.212830 190.940613,85.711929 
	C185.251526,58.585258 170.067291,38.298859 144.653854,25.154070 
	C111.998749,9.173782 74.398849,14.312200 47.472965,38.434849 
	C21.429522,61.766922 12.053338,99.143089 24.082998,132.439056 
	C38.342926,171.907990 76.886162,192.358139 112.015129,189.573822 
z"/>
<path fill="#595B7A" opacity="1.000000" stroke="none" 
	d="
M111.129448,189.489517 
	C76.886162,192.358139 38.342926,171.907990 24.082998,132.439056 
	C12.053338,99.143089 21.429522,61.766922 47.472965,38.434849 
	C74.398849,14.312200 111.998749,9.173782 144.751434,25.746635 
	C137.574051,51.670166 129.757721,76.862900 123.239960,102.387222 
	C119.689499,116.291229 118.342430,130.757874 115.634949,145.176529 
	C94.623451,149.460144 78.580025,141.233887 71.457962,125.468719 
	C70.974709,124.398987 69.422302,123.232574 68.286346,123.143677 
	C64.546059,122.850998 60.768589,123.033501 56.486290,123.033501 
	C59.308632,133.144104 64.230186,141.187012 71.626648,147.685165 
	C83.516808,158.131287 97.666901,160.909546 112.971497,160.135132 
	C112.361877,170.235931 111.745659,179.862732 111.129448,189.489517 
M61.831806,91.393372 
	C61.938316,92.828957 62.044827,94.264542 62.157322,95.780838 
	C67.739578,95.780838 72.960114,95.780838 78.729309,95.780838 
	C78.729309,90.867577 78.850502,86.251434 78.620972,81.652802 
	C78.578125,80.794464 77.160881,79.337273 76.322601,79.296600 
	C71.594635,79.067192 66.849800,79.185829 61.831539,79.185829 
	C61.831539,83.465767 61.831539,86.944046 61.831806,91.393372 
z"/>
<path fill="#515370" opacity="1.000000" stroke="none" 
	d="
M111.572289,189.531677 
	C111.745659,179.862732 112.361877,170.235931 113.316711,159.971710 
	C133.950851,156.202362 153.147934,138.964508 153.811508,123.025482 
	C151.314529,123.025482 148.786011,123.311104 146.348236,122.962334 
	C142.089630,122.353050 140.022522,124.078079 138.061890,127.906967 
	C133.464005,136.886093 126.142769,142.887955 116.001602,144.970764 
	C118.342430,130.757874 119.689499,116.291229 123.239960,102.387222 
	C129.757721,76.862900 137.574051,51.670166 145.000275,25.982897 
	C170.067291,38.298859 185.251526,58.585258 190.940613,85.711929 
	C201.531830,136.212830 164.931763,185.743439 111.572289,189.531677 
M148.229965,95.936188 
	C148.593307,90.483345 148.956650,85.030502 149.321686,79.552475 
	C143.176361,79.552475 138.001022,79.552475 132.690964,79.552475 
	C132.690964,85.175079 132.690964,90.403778 132.690964,96.065079 
	C137.743668,96.065079 142.509552,96.065079 148.229965,95.936188 
z"/>
<path fill="#FBFBFC" opacity="1.000000" stroke="none" 
	d="
M115.634949,145.176529 
	C126.142769,142.887955 133.464005,136.886093 138.061890,127.906967 
	C140.022522,124.078079 142.089630,122.353050 146.348236,122.962334 
	C148.786011,123.311104 151.314529,123.025482 153.811508,123.025482 
	C153.147934,138.964508 133.950851,156.202362 113.310112,159.497696 
	C97.666901,160.909546 83.516808,158.131287 71.626648,147.685165 
	C64.230186,141.187012 59.308632,133.144104 56.486290,123.033501 
	C60.768589,123.033501 64.546059,122.850998 68.286346,123.143677 
	C69.422302,123.232574 70.974709,124.398987 71.457962,125.468719 
	C78.580025,141.233887 94.623451,149.460144 115.634949,145.176529 
z"/>
<path fill="#F9F9FA" opacity="1.000000" stroke="none" 
	d="
M61.831673,90.907852 
	C61.831539,86.944046 61.831539,83.465767 61.831539,79.185829 
	C66.849800,79.185829 71.594635,79.067192 76.322601,79.296600 
	C77.160881,79.337273 78.578125,80.794464 78.620972,81.652802 
	C78.850502,86.251434 78.729309,90.867577 78.729309,95.780838 
	C72.960114,95.780838 67.739578,95.780838 62.157322,95.780838 
	C62.044827,94.264542 61.938316,92.828957 61.831673,90.907852 
z"/>
<path fill="#F8F8F9" opacity="1.000000" stroke="none" 
	d="
M147.752716,96.000633 
	C142.509552,96.065079 137.743668,96.065079 132.690964,96.065079 
	C132.690964,90.403778 132.690964,85.175079 132.690964,79.552475 
	C138.001022,79.552475 143.176361,79.552475 149.321686,79.552475 
	C148.956650,85.030502 148.593307,90.483345 147.752716,96.000633 
z"/>
</svg>