<svg id="Raggruppa_2006" data-name="Raggruppa 2006" xmlns="http://www.w3.org/2000/svg" xmlns:xlink="http://www.w3.org/1999/xlink" width="135" height="47.37" viewBox="0 0 135 47.37">
  <defs>
    <clipPath id="clip-path">
      <rect id="Rettangolo_2037" data-name="Rettangolo 2037" width="135" height="47.37" fill="#fff"/>
    </clipPath>
  </defs>
  <g id="Raggruppa_1921" data-name="Raggruppa 1921" clip-path="url(#clip-path)">
    <path id="Tracciato_605" data-name="Tracciato 605" d="M385.43,67.529a3.279,3.279,0,0,1-1.345.934,7.263,7.263,0,0,1-1.753.433,13.95,13.95,0,0,1-1.662.113,6.793,6.793,0,0,1-3.6-.912,3.907,3.907,0,0,1-1.73-3.188h-4.458V56.966a4.98,4.98,0,0,0,.4,1.045,5.711,5.711,0,0,0,1.708,1.982,9,9,0,0,0,2.413,1.229,26.028,26.028,0,0,0,2.8.776q1.413.317,2.778.592a17.059,17.059,0,0,1,2.435.66,5.069,5.069,0,0,1,1.753,1.025,2.292,2.292,0,0,1,.728,1.64,2.213,2.213,0,0,1-.471,1.614m3.279-6.946a8.9,8.9,0,0,0-2.438-1.229q-1.368-.453-2.778-.773-1.458-.317-2.823-.592a16.682,16.682,0,0,1-2.438-.66,5.179,5.179,0,0,1-1.73-.98,1.982,1.982,0,0,1-.66-1.549,1.732,1.732,0,0,1,.456-1.252,2.982,2.982,0,0,1,1.116-.728,6.179,6.179,0,0,1,1.41-.343,11.065,11.065,0,0,1,1.3-.091,7.089,7.089,0,0,1,3.075.637,3.239,3.239,0,0,1,1.708,2.506h5.42a7.8,7.8,0,0,0-1.116-3.347,7.359,7.359,0,0,0-2.231-2.254,9.518,9.518,0,0,0-3.007-1.252,15.379,15.379,0,0,0-3.483-.388,18.816,18.816,0,0,0-3.347.32,10.3,10.3,0,0,0-3.189,1.116,7.136,7.136,0,0,0-2.367,2.1,4.706,4.706,0,0,0-.7,1.448V48.925h-5.193V62.588a10.548,10.548,0,0,1-.295,2.551,5.18,5.18,0,0,1-.98,2.027,4.823,4.823,0,0,1-1.775,1.342,6.541,6.541,0,0,1-2.733.5,4.314,4.314,0,0,1-3.324-1.274q-1.186-1.273-1.184-4.372V48.925H350.21V63.862c0,.209.005.416.01.62a5.425,5.425,0,0,1,1.5,1.171,6.338,6.338,0,0,1,1.677,4.38,6.747,6.747,0,0,1-.191,1.6A9.838,9.838,0,0,0,359,73.108a7.729,7.729,0,0,0,3.848-1.07,7.127,7.127,0,0,0,2.846-2.846h.091v3.279h5.1V68.307c.035.076.068.151.106.224a7.381,7.381,0,0,0,2.186,2.551,9.651,9.651,0,0,0,3.279,1.526,16.013,16.013,0,0,0,4.123.5,17.111,17.111,0,0,0,3.69-.411,11.337,11.337,0,0,0,3.393-1.32,7.572,7.572,0,0,0,2.483-2.367,6.34,6.34,0,0,0,.957-3.554,5.935,5.935,0,0,0-.66-2.914,6,6,0,0,0-1.733-1.962" transform="translate(-262.008 -36.128)" fill="#fff"/>
    <path id="Tracciato_606" data-name="Tracciato 606" d="M521.7,60.611h-.526V59.578h.667a1.822,1.822,0,0,1,.257.02.7.7,0,0,1,.229.071.44.44,0,0,1,.164.149.465.465,0,0,1,.063.259.534.534,0,0,1-.07.3.446.446,0,0,1-.189.159.8.8,0,0,1-.272.063c-.1.01-.206.013-.322.013m1.113.131a.788.788,0,0,0,.244-.642.85.85,0,0,0-.28-.7,1.326,1.326,0,0,0-.856-.232H520.67v3.241h.5v-1.4h.534l.884,1.4h.542l-.927-1.431a1.083,1.083,0,0,0,.61-.239" transform="translate(-389.536 -44.268)" fill="#fff"/>
    <path id="Tracciato_607" data-name="Tracciato 607" d="M518.771,58.322a2.254,2.254,0,0,1-1.2,1.254,2.221,2.221,0,0,1-.9.181,2.263,2.263,0,0,1-.909-.181,2.187,2.187,0,0,1-.725-.5,2.334,2.334,0,0,1-.481-.753,2.521,2.521,0,0,1-.174-.944,2.458,2.458,0,0,1,.174-.927,2.248,2.248,0,0,1,2.116-1.423,2.2,2.2,0,0,1,.9.181,2.242,2.242,0,0,1,1.2,1.242,2.458,2.458,0,0,1,.174.927,2.521,2.521,0,0,1-.174.944m.456-2.035a2.767,2.767,0,0,0-1.486-1.456,2.845,2.845,0,0,0-2.153,0,2.831,2.831,0,0,0-.889.582,2.77,2.77,0,0,0-.6.874,2.807,2.807,0,0,0,0,2.2,2.775,2.775,0,0,0,.6.881,2.746,2.746,0,0,0,.889.582,2.91,2.91,0,0,0,2.153,0,2.725,2.725,0,0,0,.884-.582,2.838,2.838,0,0,0,.6-.881,2.725,2.725,0,0,0,.222-1.108,2.637,2.637,0,0,0-.222-1.091" transform="translate(-384.449 -40.864)" fill="#fff"/>
    <path id="Tracciato_608" data-name="Tracciato 608" d="M360.734,12.8h4.856c0-7.067-5.3-12.8-11.85-12.8V5.24a7.289,7.289,0,0,1,6.994,7.556" transform="translate(-264.649 0.001)" fill="#fff"/>
    <path id="Tracciato_609" data-name="Tracciato 609" d="M328.077,121.249a3.148,3.148,0,0,0-2.463,1,3.538,3.538,0,0,0,0,4.725,3.521,3.521,0,0,0,4.926,0,3.538,3.538,0,0,0,0-4.725,3.152,3.152,0,0,0-2.463-1" transform="translate(-242.93 -90.712)" fill="#fff"/>
    <path id="Tracciato_610" data-name="Tracciato 610" d="M77.478,67.514a3.31,3.31,0,0,1-1.342.934,7.148,7.148,0,0,1-1.753.433A13.945,13.945,0,0,1,72.72,69a6.794,6.794,0,0,1-3.6-.912,3.908,3.908,0,0,1-1.73-3.188h-4.3V57.448a4.29,4.29,0,0,0,.244.547,5.679,5.679,0,0,0,1.708,1.98A9,9,0,0,0,67.459,61.2a26.025,26.025,0,0,0,2.8.776q1.413.317,2.778.592a16.959,16.959,0,0,1,2.435.66,5.046,5.046,0,0,1,1.753,1.025,2.292,2.292,0,0,1,.728,1.64,2.254,2.254,0,0,1-.476,1.619M37.518,65.079a5.786,5.786,0,0,1-2.073,2.937,6.225,6.225,0,0,1-3.667.98,6.445,6.445,0,0,1-2.823-.569A5.605,5.605,0,0,1,27,66.9a6.493,6.493,0,0,1-1.161-2.231,9,9,0,0,1-.388-2.642H42.414v3.052ZM25.971,56.151a6.6,6.6,0,0,1,1.274-1.982,5.645,5.645,0,0,1,1.914-1.32,6.217,6.217,0,0,1,2.481-.479,5.345,5.345,0,0,1,2.39.524,5.852,5.852,0,0,1,1.821,1.368,6.314,6.314,0,0,1,1.184,1.982,8.406,8.406,0,0,1,.524,2.367H25.444a7.007,7.007,0,0,1,.526-2.461m-6.3,4.418a8.9,8.9,0,0,0-2.438-1.229q-1.368-.453-2.778-.773-1.458-.317-2.823-.592a16.961,16.961,0,0,1-2.435-.66,5.179,5.179,0,0,1-1.73-.98,1.975,1.975,0,0,1-.66-1.549,1.732,1.732,0,0,1,.456-1.252,2.932,2.932,0,0,1,1.116-.728,6.168,6.168,0,0,1,1.413-.343,11.064,11.064,0,0,1,1.3-.091,7.088,7.088,0,0,1,3.075.637,3.239,3.239,0,0,1,1.708,2.506h5.349c-.055.144-.111.287-.164.433a14.178,14.178,0,0,0-.8,4.76c0,.121.005.239.008.36a6.553,6.553,0,0,0-.6-.5m62.815,1.959a6,6,0,0,0-1.73-1.957,8.919,8.919,0,0,0-2.435-1.229q-1.368-.453-2.778-.776-1.458-.317-2.823-.592a17.091,17.091,0,0,1-2.438-.66,5.178,5.178,0,0,1-1.73-.98,1.974,1.974,0,0,1-.66-1.549,1.732,1.732,0,0,1,.456-1.252,2.932,2.932,0,0,1,1.116-.728,6.179,6.179,0,0,1,1.41-.343,11.068,11.068,0,0,1,1.3-.091,7.088,7.088,0,0,1,3.075.637,3.233,3.233,0,0,1,1.708,2.506h5.42a7.837,7.837,0,0,0-1.116-3.347,7.363,7.363,0,0,0-2.231-2.254,9.532,9.532,0,0,0-3-1.251,15.4,15.4,0,0,0-3.483-.388,18.583,18.583,0,0,0-3.347.32,10.3,10.3,0,0,0-3.188,1.116,7.135,7.135,0,0,0-2.367,2.1,4.9,4.9,0,0,0-.813,1.931,6.52,6.52,0,0,0-1.957-3.458,8.81,8.81,0,0,0-6.1-2,8.26,8.26,0,0,0-4.236,1.116,8.729,8.729,0,0,0-3.1,3.075l-.091-.091V48.91H42.422V56.9A12.44,12.44,0,0,0,40.3,52.506a10.973,10.973,0,0,0-3.667-3.075A10.568,10.568,0,0,0,31.65,48.27a10.69,10.69,0,0,0-8.314,3.712,12.028,12.028,0,0,0-2.06,3.4,7.707,7.707,0,0,0-1.1-3.211,7.331,7.331,0,0,0-2.231-2.254,9.517,9.517,0,0,0-3.007-1.252,15.365,15.365,0,0,0-3.483-.388,18.605,18.605,0,0,0-3.347.32,10.3,10.3,0,0,0-3.188,1.116,7.112,7.112,0,0,0-2.367,2.1,5.358,5.358,0,0,0-.934,3.211A6.334,6.334,0,0,0,2.256,58a5.679,5.679,0,0,0,1.708,1.98,8.962,8.962,0,0,0,2.413,1.229,26.033,26.033,0,0,0,2.8.776q1.413.317,2.778.592a17.092,17.092,0,0,1,2.438.66,5.07,5.07,0,0,1,1.753,1.025,2.293,2.293,0,0,1,.728,1.64,2.252,2.252,0,0,1-.479,1.617,3.286,3.286,0,0,1-1.342.934,7.148,7.148,0,0,1-1.753.433A13.949,13.949,0,0,1,11.638,69a6.794,6.794,0,0,1-3.6-.912A3.908,3.908,0,0,1,6.308,64.9H1.11a8.059,8.059,0,0,0,.844,3.619A7.381,7.381,0,0,0,4.14,71.068a9.651,9.651,0,0,0,3.279,1.526,16.013,16.013,0,0,0,4.123.5,17.129,17.129,0,0,0,3.69-.411,11.271,11.271,0,0,0,3.393-1.32A7.572,7.572,0,0,0,21.107,69a5.41,5.41,0,0,0,.67-1.468,10.4,10.4,0,0,0,1.463,2.106,10.165,10.165,0,0,0,3.622,2.551,12.47,12.47,0,0,0,4.919.912,12.731,12.731,0,0,0,3.667-.524,10.471,10.471,0,0,0,3.166-1.549,9.755,9.755,0,0,0,3.8-5.853v7.286H47.61V58.568a7.052,7.052,0,0,1,.411-2.415,6.221,6.221,0,0,1,1.138-1.982,5.122,5.122,0,0,1,1.776-1.32,5.623,5.623,0,0,1,2.367-.479,4.3,4.3,0,0,1,3.415,1.252A6.405,6.405,0,0,1,57.9,57.657v14.8h5.193V68.615a7.37,7.37,0,0,0,2.133,2.455A9.624,9.624,0,0,0,68.507,72.6a16.012,16.012,0,0,0,4.123.5,17.112,17.112,0,0,0,3.69-.411,11.278,11.278,0,0,0,3.392-1.32c.048-.027.093-.058.139-.088a6.84,6.84,0,0,1-.113-1.257,6.339,6.339,0,0,1,1.677-4.38,5.379,5.379,0,0,1,1.665-1.249,5.33,5.33,0,0,0-.592-1.866" transform="translate(-0.83 -36.113)" fill="#fff"/>
    <path id="Tracciato_611" data-name="Tracciato 611" d="M1.349,168.229a2.28,2.28,0,0,1-.893-.657A2.176,2.176,0,0,1,0,166.568l.811-.128a1.62,1.62,0,0,0,.355.683,1.663,1.663,0,0,0,.624.439,2.115,2.115,0,0,0,.811.152,2.111,2.111,0,0,0,.776-.137,1.285,1.285,0,0,0,.549-.388.92.92,0,0,0,.2-.591A.756.756,0,0,0,3.883,166a1.669,1.669,0,0,0-.644-.335l-1.617-.48a2.359,2.359,0,0,1-1-.547,1.337,1.337,0,0,1-.379-1.009,1.6,1.6,0,0,1,.286-.95,1.811,1.811,0,0,1,.789-.617,2.867,2.867,0,0,1,1.133-.214,2.842,2.842,0,0,1,1.146.222,2.183,2.183,0,0,1,.846.639,2.257,2.257,0,0,1,.45.994l-.833.145a1.445,1.445,0,0,0-.3-.666,1.5,1.5,0,0,0-.575-.438,1.86,1.86,0,0,0-.756-.152,1.785,1.785,0,0,0-.694.13,1.192,1.192,0,0,0-.489.357.809.809,0,0,0-.179.514.675.675,0,0,0,.154.454,1.071,1.071,0,0,0,.377.282,3.558,3.558,0,0,0,.527.185l1.208.348a4.484,4.484,0,0,1,.743.276,1.64,1.64,0,0,1,.593.507,1.468,1.468,0,0,1,.26.906,1.7,1.7,0,0,1-.313,1.027,1.936,1.936,0,0,1-.853.654,3.149,3.149,0,0,1-1.21.223,3.086,3.086,0,0,1-1.212-.229" transform="translate(0 -121.089)" fill="#fff"/>
    <path id="Tracciato_612" data-name="Tracciato 612" d="M30.975,162.358h4.011v.745H31.76v1.988h2.7v.745h-2.7v2.124h3.226v.745H30.975Z" transform="translate(-23.174 -121.468)" fill="#fff"/>
    <path id="Tracciato_613" data-name="Tracciato 613" d="M58.8,162.358h.793l3.31,4.958v-4.958H63.7v6.347H62.9l-3.31-4.963v4.963H58.8Z" transform="translate(-43.991 -121.468)" fill="#fff"/>
    <path id="Tracciato_614" data-name="Tracciato 614" d="M90.966,168.229a2.28,2.28,0,0,1-.893-.657,2.176,2.176,0,0,1-.456-1.005l.811-.128a1.619,1.619,0,0,0,.355.683,1.663,1.663,0,0,0,.624.439,2.256,2.256,0,0,0,1.587.015,1.285,1.285,0,0,0,.549-.388.92.92,0,0,0,.2-.591A.757.757,0,0,0,93.5,166a1.669,1.669,0,0,0-.644-.335l-1.617-.48a2.359,2.359,0,0,1-1-.547,1.337,1.337,0,0,1-.379-1.009,1.6,1.6,0,0,1,.286-.95,1.811,1.811,0,0,1,.789-.617,3.086,3.086,0,0,1,2.279.009,2.183,2.183,0,0,1,.846.639,2.257,2.257,0,0,1,.45.994l-.833.145a1.445,1.445,0,0,0-.3-.666,1.5,1.5,0,0,0-.575-.438,1.861,1.861,0,0,0-.756-.152,1.785,1.785,0,0,0-.694.13,1.192,1.192,0,0,0-.489.357.809.809,0,0,0-.179.514.675.675,0,0,0,.154.454,1.071,1.071,0,0,0,.377.282,3.558,3.558,0,0,0,.527.185l1.208.348a4.485,4.485,0,0,1,.743.276,1.641,1.641,0,0,1,.593.507,1.468,1.468,0,0,1,.26.906,1.7,1.7,0,0,1-.313,1.027,1.936,1.936,0,0,1-.853.654,3.149,3.149,0,0,1-1.21.223,3.086,3.086,0,0,1-1.212-.229" transform="translate(-67.046 -121.089)" fill="#fff"/>
    <path id="Tracciato_615" data-name="Tracciato 615" d="M120.592,162.358H124.6v.745h-3.226v1.988h2.7v.745h-2.7v2.124H124.6v.745h-4.011Z" transform="translate(-90.22 -121.468)" fill="#fff"/>
    <path id="Tracciato_616" data-name="Tracciato 616" d="M179.993,162.358h1.093l2.124,6.347H182.4l-.5-1.485h-2.71l-.5,1.485h-.815Zm1.653,4.125-1.115-3.3-1.1,3.3Z" transform="translate(-133.072 -121.467)" fill="#fff"/>
    <path id="Tracciato_617" data-name="Tracciato 617" d="M209.929,162.358h.793l3.31,4.958v-4.958h.793v6.347h-.793l-3.31-4.963v4.963h-.793Z" transform="translate(-157.057 -121.468)" fill="#fff"/>
    <path id="Tracciato_618" data-name="Tracciato 618" d="M241.971,162.358h1.957a6.388,6.388,0,0,1,.8.04,2.258,2.258,0,0,1,1.216.527,2.7,2.7,0,0,1,.758,1.111,4.52,4.52,0,0,1,0,3,2.678,2.678,0,0,1-.758,1.108,2.267,2.267,0,0,1-1.216.525,6.344,6.344,0,0,1-.8.04h-1.957Zm1.957,5.6a4.156,4.156,0,0,0,.736-.049,1.518,1.518,0,0,0,1.1-.785,3.688,3.688,0,0,0,0-3.189,1.51,1.51,0,0,0-1.1-.778,4.154,4.154,0,0,0-.736-.048h-1.15v4.848Z" transform="translate(-181.029 -121.467)" fill="#fff"/>
    <path id="Tracciato_619" data-name="Tracciato 619" d="M304.672,168.031a2.647,2.647,0,0,1-1.016-1.161,4.471,4.471,0,0,1,0-3.46,2.647,2.647,0,0,1,1.016-1.161,2.97,2.97,0,0,1,1.6-.414,3.132,3.132,0,0,1,1.287.251,2.543,2.543,0,0,1,.945.716,3.014,3.014,0,0,1,.562,1.1l-.8.211a2.088,2.088,0,0,0-.7-1.128,2.018,2.018,0,0,0-1.292-.4,2.068,2.068,0,0,0-1.177.322,1.938,1.938,0,0,0-.719.9,3.569,3.569,0,0,0-.238,1.358,3.37,3.37,0,0,0,.242,1.331,1.938,1.938,0,0,0,.721.884,2.081,2.081,0,0,0,1.17.315,2.016,2.016,0,0,0,1.292-.4,2.087,2.087,0,0,0,.7-1.128l.8.212a3.011,3.011,0,0,1-.562,1.1,2.541,2.541,0,0,1-.945.716,3.133,3.133,0,0,1-1.287.252,2.97,2.97,0,0,1-1.6-.415" transform="translate(-226.918 -121.076)" fill="#fff"/>
    <path id="Tracciato_620" data-name="Tracciato 620" d="M337.675,168.031a2.647,2.647,0,0,1-1.016-1.161,4.47,4.47,0,0,1,0-3.46,2.647,2.647,0,0,1,1.016-1.162,3.289,3.289,0,0,1,3.2,0,2.648,2.648,0,0,1,1.016,1.162,4.471,4.471,0,0,1,0,3.46,2.647,2.647,0,0,1-1.016,1.161,3.286,3.286,0,0,1-3.2,0m-.289-1.529a1.914,1.914,0,0,0,.725.882,2.121,2.121,0,0,0,1.179.313,2.031,2.031,0,0,0,1.161-.319,1.945,1.945,0,0,0,.712-.895,3.893,3.893,0,0,0,0-2.693,1.928,1.928,0,0,0-.723-.891,2.108,2.108,0,0,0-1.181-.315,2.016,2.016,0,0,0-1.166.324,1.954,1.954,0,0,0-.709.9,3.584,3.584,0,0,0-.236,1.355,3.383,3.383,0,0,0,.242,1.336" transform="translate(-251.609 -121.075)" fill="#fff"/>
    <path id="Tracciato_621" data-name="Tracciato 621" d="M371.032,162.358h.793l3.31,4.958v-4.958h.793v6.347h-.793l-3.31-4.963v4.963h-.793Z" transform="translate(-277.586 -121.468)" fill="#fff"/>
    <path id="Tracciato_622" data-name="Tracciato 622" d="M403.074,162.358h.793l3.31,4.958v-4.958h.793v6.347h-.793l-3.31-4.963v4.963h-.793Z" transform="translate(-301.558 -121.468)" fill="#fff"/>
    <path id="Tracciato_623" data-name="Tracciato 623" d="M435.117,162.358h4.011v.745H435.9v1.988h2.7v.745h-2.7v2.124h3.226v.745h-4.011Z" transform="translate(-325.53 -121.468)" fill="#fff"/>
    <path id="Tracciato_624" data-name="Tracciato 624" d="M462.031,168.031a2.649,2.649,0,0,1-1.016-1.161,4.471,4.471,0,0,1,0-3.46,2.649,2.649,0,0,1,1.016-1.161,2.97,2.97,0,0,1,1.6-.414,3.132,3.132,0,0,1,1.287.251,2.543,2.543,0,0,1,.946.716,3.014,3.014,0,0,1,.562,1.1l-.8.211a2.088,2.088,0,0,0-.705-1.128,2.017,2.017,0,0,0-1.291-.4,2.068,2.068,0,0,0-1.177.322,1.939,1.939,0,0,0-.719.9,3.567,3.567,0,0,0-.238,1.358,3.37,3.37,0,0,0,.243,1.331,1.938,1.938,0,0,0,.721.884,2.08,2.08,0,0,0,1.17.315,2.016,2.016,0,0,0,1.291-.4,2.087,2.087,0,0,0,.705-1.128l.8.212a3.011,3.011,0,0,1-.562,1.1,2.541,2.541,0,0,1-.946.716,3.132,3.132,0,0,1-1.287.252,2.97,2.97,0,0,1-1.6-.415" transform="translate(-344.645 -121.076)" fill="#fff"/>
    <path id="Tracciato_625" data-name="Tracciato 625" d="M495.135,163.1h-2.164v-.745h5.113v.745h-2.164v5.6h-.784Z" transform="translate(-368.813 -121.468)" fill="#fff"/>
  </g>
</svg>
