<svg xmlns="http://www.w3.org/2000/svg" xmlns:xlink="http://www.w3.org/1999/xlink" width="217.049" height="95.001" viewBox="0 0 217.049 95.001">
  <defs>
    <clipPath id="clip-path">
      <rect id="Rettangolo_2254" data-name="Rettangolo 2254" width="217.049" height="95.001" fill="none"/>
    </clipPath>
  </defs>
  <g id="Raggruppa_2573" data-name="Raggruppa 2573" transform="translate(217.049 95.001) rotate(180)">
    <g id="Raggruppa_2572" data-name="Raggruppa 2572" clip-path="url(#clip-path)">
      <path id="Tracciato_962" data-name="Tracciato 962" d="M280,0a8.451,8.451,0,0,1,5.933,2.071,6.82,6.82,0,0,1,2.265,5.264,12.075,12.075,0,0,1-2.567,6.773,26.222,26.222,0,0,1-8.391,7.076,62.429,62.429,0,0,1-19.673,6.945q-1.207.217-2.373.345a142.411,142.411,0,0,0-7.42,17.127q-2.848,7.982-2.848,11.778,0,4.141,3.02,4.142a11.741,11.741,0,0,0,5.565-1.985,87.953,87.953,0,0,0,14.8-11.648l.345-.3q7.593-7.034,14.841-12.6,7.982-5.824,13.115-5.824a5.293,5.293,0,0,1,4.292,1.769,7.341,7.341,0,0,1,1.49,4.875q0,5.694-4.617,13.848a102.594,102.594,0,0,1-14.194,18.853A111.919,111.919,0,0,1,261.531,87.02Q248.847,95,238.925,95h-.993a12.958,12.958,0,0,1-5.8-1.423,9.51,9.51,0,0,1-3.991-4.141,16.171,16.171,0,0,1-1.466-7.464,46.758,46.758,0,0,1,1.423-10.4,1.106,1.106,0,0,1,.431-.69,1.206,1.206,0,0,1,.733-.258,1.366,1.366,0,0,1,.906.453,1.173,1.173,0,0,1,.3.754l-.043.3a45.3,45.3,0,0,0-1.337,9.837,13.906,13.906,0,0,0,1.208,6.342q2.114,4.1,7.766,4.271h.863A32.9,32.9,0,0,0,253.033,89a80.274,80.274,0,0,0,14.927-9.4,121.013,121.013,0,0,0,13.85-12.728,100.546,100.546,0,0,0,13.848-18.378q4.27-7.853,4.272-12.554a5.76,5.76,0,0,0-1.036-3.646,3.713,3.713,0,0,0-3.106-1.316q-4.142,0-11.3,5.263-7.29,5.608-15.1,12.857-17.128,15.531-23.643,15.531-3.665,0-3.666-5.134,0-4.7,3.408-14.668a140.142,140.142,0,0,1,6.9-16.135l-1.769.043a20.678,20.678,0,0,1-8.887-1.769.88.88,0,0,1-.431-.733l.086-.389a.878.878,0,0,1,.733-.431l.345.085a19.16,19.16,0,0,0,8.283,1.639q1.208,0,2.459-.085Q260.626,12.6,266.449,6.6a26.344,26.344,0,0,1,7.227-5.068A15.861,15.861,0,0,1,280,0m.345,2.374a14.213,14.213,0,0,0-5.695,1.4,24.389,24.389,0,0,0-6.558,4.595q-5.219,5.351-12.036,18.379l1.251-.216a61.094,61.094,0,0,0,19.156-6.774,25.635,25.635,0,0,0,7.81-6.342q2.373-3.191,2.372-5.695a4.861,4.861,0,0,0-1.726-3.861,6.755,6.755,0,0,0-4.573-1.488" transform="translate(-85.339 0)" fill="#fff"/>
      <path id="Tracciato_963" data-name="Tracciato 963" d="M232.671,68.935a3.83,3.83,0,0,1,1.3.216q2.027.648,2.027,3.624a19.441,19.441,0,0,1-1.337,6.039q-2.159,5.868-3.538,5.868a1.228,1.228,0,0,1-1.036-1.854,25.379,25.379,0,0,0,2.331-4.833,16.352,16.352,0,0,0,1.078-4.875q0-2.33-1.813-2.329-1.9,0-4.7,2.157a53.867,53.867,0,0,0-5.284,4.638q-2.482,2.48-3.517,3.731a.906.906,0,0,1-.647.3.858.858,0,0,1-.54-.238.733.733,0,0,1-.279-.582.808.808,0,0,1,.214-.518,55.475,55.475,0,0,1,7.033-6.9q5.349-4.444,8.714-4.444" transform="translate(-81.588 -25.953)" fill="#fff"/>
      <path id="Tracciato_964" data-name="Tracciato 964" d="M236.147,98.11q.648,0,.776.733a2.725,2.725,0,0,1-.387,1.164c-.519.749-.963,1.122-1.339,1.122a.663.663,0,0,1-.56-.3,1.226,1.226,0,0,1-.216-.733,2.038,2.038,0,0,1,.281-1.013,1.892,1.892,0,0,1,.69-.734,1.531,1.531,0,0,1,.755-.236" transform="translate(-88.256 -36.937)" fill="#fff"/>
      <path id="Tracciato_965" data-name="Tracciato 965" d="M190.107,68.313a3.52,3.52,0,0,1,1.122.173q2.07.776,2.07,4.1a22.859,22.859,0,0,1-1.38,6.816l.734-.991q1.208-1.641,3.063-3.99a36.431,36.431,0,0,1,3.862-4.207,5.656,5.656,0,0,1,3.558-1.856,2.162,2.162,0,0,1,.6.087q1.294.474,1.294,2.675a12.908,12.908,0,0,1-.647,3.537A52.917,52.917,0,0,1,201.5,81.73a28.7,28.7,0,0,1-1.51,2.8,1.274,1.274,0,0,1-1.034.562,1.224,1.224,0,0,1-.6-.173,1.288,1.288,0,0,1-.6-1.079,1.033,1.033,0,0,1,.216-.6l1.38-2.546a46.282,46.282,0,0,0,2.718-6.73,9.742,9.742,0,0,0,.561-2.589q0-.819-.517-.819-1.813,0-9.233,10.009-2.5,3.45-3.192,4.487a.039.039,0,0,1-.043.044,1.193,1.193,0,0,1-.993.517,1.536,1.536,0,0,1-.69-.173,1.268,1.268,0,0,1-.518-.993,1.523,1.523,0,0,1,.128-.6q.433-.819,1.252-2.868a45.524,45.524,0,0,0,1.51-4.487,15.806,15.806,0,0,0,.69-4.207q0-2.2-1.6-2.2-2.976,0-10.052,6.471-1.983,1.811-4.789,4.529a.931.931,0,0,1-.6.259.667.667,0,0,1-.454-.173.554.554,0,0,1-.193-.431.961.961,0,0,1,.345-.647,67.025,67.025,0,0,1,7.55-7.162q5.694-4.617,8.887-4.616" transform="translate(-65.254 -25.719)" fill="#fff"/>
      <path id="Tracciato_966" data-name="Tracciato 966" d="M164.1,51.844a3.582,3.582,0,0,1,.776.087q2.286.605,2.286,4.487a29.615,29.615,0,0,1-1.337,7.938A142.339,142.339,0,0,1,159.184,82.3l-2.675,5.911c-2.7,5.827-7.715,15.5-9.428,18.293s-2.9,4.3-3.558,4.53l-.475.043q-.947,0-1.251-1.122c0-.979,1.886-2.279,3.323-4.149,3.2-4.165,7.478-13.426,8.886-16.56s2.97-6.831,4.681-11.088,3.222-8.4,4.53-12.424a32.866,32.866,0,0,0,1.963-9.32q0-2.676-1.64-2.675-1.855,0-5.068,2.61a70.01,70.01,0,0,0-6.644,6.234q-3.431,3.624-6.148,6.947a52.1,52.1,0,0,0-3.753,5c-.316.431-.6.647-.863.647q-.518,0-.6-.733a1.867,1.867,0,0,1,.3-.906q1.208-1.812,4.012-5.307t6.364-7.248a61.958,61.958,0,0,1,7.053-6.45q3.494-2.7,5.911-2.7" transform="translate(-52.881 -19.519)" fill="#fff"/>
      <path id="Tracciato_967" data-name="Tracciato 967" d="M131.167,68.935a3.83,3.83,0,0,1,1.3.216q2.027.648,2.027,3.624a19.441,19.441,0,0,1-1.337,6.039q-2.159,5.868-3.538,5.868a1.228,1.228,0,0,1-1.036-1.854,25.378,25.378,0,0,0,2.331-4.833,16.352,16.352,0,0,0,1.078-4.875q0-2.33-1.813-2.329-1.9,0-4.7,2.157a53.867,53.867,0,0,0-5.284,4.638q-2.482,2.48-3.517,3.731a.906.906,0,0,1-.647.3.858.858,0,0,1-.54-.238.733.733,0,0,1-.279-.582.808.808,0,0,1,.214-.518,55.474,55.474,0,0,1,7.033-6.9q5.349-4.444,8.714-4.444" transform="translate(-43.373 -25.953)" fill="#fff"/>
      <path id="Tracciato_968" data-name="Tracciato 968" d="M134.643,98.11q.648,0,.776.733a2.725,2.725,0,0,1-.387,1.164c-.519.749-.963,1.122-1.339,1.122a.663.663,0,0,1-.56-.3,1.226,1.226,0,0,1-.216-.733,2.038,2.038,0,0,1,.281-1.013,1.892,1.892,0,0,1,.69-.734,1.531,1.531,0,0,1,.755-.236" transform="translate(-50.041 -36.937)" fill="#fff"/>
      <path id="Tracciato_969" data-name="Tracciato 969" d="M104.9,68.313a5.318,5.318,0,0,1,2.933.776,4.247,4.247,0,0,1,1.726,3.8,9.719,9.719,0,0,1-.216,1.985h.691c.431.028.647.3.647.82a1.407,1.407,0,0,1-.173.668.5.5,0,0,1-.431.324.536.536,0,0,1-.3-.13h-.906A18.487,18.487,0,0,1,104.9,82.9q-2.8,2.718-5.35,2.718a2.852,2.852,0,0,1-1.962-.668A2.223,2.223,0,0,1,96.83,83.2a4.987,4.987,0,0,1,.906-2.568,12.382,12.382,0,0,1,2.977-3.041,14.424,14.424,0,0,1,6.125-2.546,7.2,7.2,0,0,0,.345-2.114,2.959,2.959,0,0,0-.906-2.243,3,3,0,0,0-1.984-.647q-2.589,0-6.386,2.675A44.2,44.2,0,0,0,92.6,77.459Q90.186,80,89.366,81.04a.877.877,0,0,1-1.122.173.951.951,0,0,1-.3-.69.9.9,0,0,1,.13-.474q.863-1.079,3.343-3.711a44.285,44.285,0,0,1,5.5-4.918q4.53-3.105,7.982-3.106M106.1,76.9a10.738,10.738,0,0,0-4.27,1.811A12.385,12.385,0,0,0,99.4,81.04a3.182,3.182,0,0,0-.756,1.682q0,.69.819.734,1.467,0,3.624-2.2A16.321,16.321,0,0,0,106.1,76.9" transform="translate(-33.109 -25.719)" fill="#fff"/>
      <path id="Tracciato_970" data-name="Tracciato 970" d="M21.732,85.544a1.528,1.528,0,0,0,.155.122q8.992-.182,18.657-.52l-.166.4c.84-.022,1.794-.3,2.646-.319,3.517-.1,7.009.042,10.68-.08-1.216,2.887-2.488,5.883-3.848,9.025q-.68.166-1.526,1.426a15.567,15.567,0,0,0-1.493,2.8,9.532,9.532,0,0,0-.951,3.2,1.341,1.341,0,0,0,.5,1.095,1.674,1.674,0,0,0,1.106.409,1.736,1.736,0,0,0,1.382-.774q3.616-7.763,7.376-17.252,13.5-.431,22.561-1.338c2.621-.32,3.926-.885,3.926-1.681-.033-.642-.763-1.072-2.2-1.294a18.455,18.455,0,0,0-3.7-.4c-1.327,0-2.079.11-2.245.332a1.139,1.139,0,0,0-.265.752l.044.254q-1.079.929-6.039,1.471c0,.011-.011.011-.022.011-2.876.31-6.735.542-11.579.675.122-.309.244-.63.365-.94q4.246-10.7,7.918-21.6,3.832-11.363,6.248-20.88t2.422-14.686c0-2.621-.453-3.926-1.338-3.926a2.761,2.761,0,0,0-1.681.708,2.443,2.443,0,0,0-.907,2.046,3.632,3.632,0,0,0,.144.973q.149.547.332,1.592a18.461,18.461,0,0,1,.166,2.743,58.348,58.348,0,0,1-1.183,9.666,145.546,145.546,0,0,1-4.7,17.2Q61.075,67.313,54.5,83.244c-.1.232-.188.465-.288.7-3.472.089-6.945.133-10.4.133q-3.832,0-7.222-.044c-1.98.033-3.959.044-5.938.044q-4.894,0-9.058-.077a1.212,1.212,0,0,0-.21.73,1.123,1.123,0,0,0,.343.819" transform="translate(-8.053 -8.216)" fill="#fff"/>
      <path id="Tracciato_971" data-name="Tracciato 971" d="M.625,85.544a1.146,1.146,0,0,0,.819.343c4.047-.055,8.217-.122,12.5-.221q8.991-.182,18.657-.52l-.166.4c-1.162,2.765-2.389,5.629-3.683,8.626q-.68.166-1.526,1.426a15.567,15.567,0,0,0-1.493,2.8,9.438,9.438,0,0,0-.94,3.2,1.363,1.363,0,0,0,.486,1.095,1.7,1.7,0,0,0,1.106.409,1.735,1.735,0,0,0,1.382-.774q3.533-7.6,7.21-16.843c.055-.132.11-.276.166-.409q13.5-.431,22.561-1.338a12.287,12.287,0,0,0,2.654-.553c-2.876.31-6.735.542-11.579.675.122-.309.244-.63.365-.94-.763.122-1.854,1.111-2.82,1.163-3.442.186-5.854-.084-10.769-.041,2.964-7.443,5.781-15.145,8.346-22.72s4.645-14.543,6.249-20.88S52.569,29.2,52.569,25.748c0-2.621-.453-3.926-1.338-3.926a2.763,2.763,0,0,0-1.681.708,2.443,2.443,0,0,0-.907,2.046,3.291,3.291,0,0,0,.155.973c.1.365.2.9.32,1.592a18.376,18.376,0,0,1,.166,2.743A57.145,57.145,0,0,1,48.1,39.55a143.374,143.374,0,0,1-4.7,17.2q-3.517,10.8-10.3,27.194c-1.482.033-2.975.067-4.457.089-1.98.033-3.959.044-5.939.044q-4.893,0-9.057-.077c-2-.033-3.882-.089-5.629-.144a54.465,54.465,0,0,1-6.58-.387,1.33,1.33,0,0,0-.84.387,1.2,1.2,0,0,0-.321.874,1.123,1.123,0,0,0,.343.819" transform="translate(-0.106 -8.216)" fill="#fff"/>
      <path id="Tracciato_972" data-name="Tracciato 972" d="M16.438,68.59a3.516,3.516,0,0,1,1.122.173q2.806.862,2.8,5.738a24.24,24.24,0,0,1-1.294,7.506l1.467-1.251q0-.518.021-1.036a1.178,1.178,0,0,1,.367-.841,1.209,1.209,0,0,1,.863-.323,1.186,1.186,0,0,1,.95.474Q28,74.673,30.761,74.672A1.438,1.438,0,0,1,32.4,76.1q0,1.6-2.546,5.09A15.916,15.916,0,0,1,27.2,83.905a5.348,5.348,0,0,1-3.43,1.423,2.921,2.921,0,0,1-1.768-.6,3.624,3.624,0,0,1-1.209-2.071L17.732,85.2a1.181,1.181,0,0,1-1.812.431,1.234,1.234,0,0,1-.518-.95,1.207,1.207,0,0,1,.258-.733A9.279,9.279,0,0,0,16.7,81.533a22.967,22.967,0,0,0,1.3-6.99q0-3.881-2.459-3.882a8.385,8.385,0,0,0-4.573,1.92,50.745,50.745,0,0,0-5.135,4.228q-2.459,2.307-3.839,3.775l-.6.6a.783.783,0,0,1-.561.259.784.784,0,0,1-.561-.259A.782.782,0,0,1,0,80.626a.742.742,0,0,1,.238-.539l.5-.5a86.625,86.625,0,0,1,7.206-6.729q5.22-4.272,8.5-4.272m13.115,7.938q-.688,0-3.106,1.683-1.726,1.207-3.5,2.675.088,2.071.907,2.07a2.57,2.57,0,0,0,1.424-.668,19.151,19.151,0,0,0,1.618-1.4,12.252,12.252,0,0,0,1.056-1.122q1.857-2.329,1.856-2.976a.229.229,0,0,0-.259-.259" transform="translate(0 -25.823)" fill="#fff"/>
    </g>
  </g>
</svg>
